<?xml version="1.0" encoding="UTF-8" standalone="no"?>
<!DOCTYPE svg PUBLIC "-//W3C//DTD SVG 1.1//EN"
 "http://www.w3.org/Graphics/SVG/1.1/DTD/svg11.dtd">
<!-- Generated by graphviz version 2.38.0 (20140413.2041)
 -->
<!-- Title: snakemake_dag Pages: 1 -->
<svg width="944pt" height="1054pt"
 viewBox="0.00 0.00 944.04 1054.00" xmlns="http://www.w3.org/2000/svg" xmlns:xlink="http://www.w3.org/1999/xlink">
<g id="graph0" class="graph" transform="scale(1 1) rotate(0) translate(4 1050)">
<title>snakemake_dag</title>
<polygon fill="white" stroke="none" points="-4,4 -4,-1050 940.039,-1050 940.039,4 -4,4"/>
<!-- 0 -->
<g id="node1" class="node"><title>0</title>
<path fill="none" stroke="#70d856" stroke-width="2" stroke-dasharray="5,2" d="M560.266,-828C560.266,-828 505.773,-828 505.773,-828 499.773,-828 493.773,-822 493.773,-816 493.773,-816 493.773,-804 493.773,-804 493.773,-798 499.773,-792 505.773,-792 505.773,-792 560.266,-792 560.266,-792 566.266,-792 572.266,-798 572.266,-804 572.266,-804 572.266,-816 572.266,-816 572.266,-822 566.266,-828 560.266,-828"/>
<text text-anchor="middle" x="533.02" y="-807" font-family="sans" font-size="10.00">samtools_sort</text>
</g>
<!-- 4 -->
<g id="node5" class="node"><title>4</title>
<path fill="none" stroke="#d8bc56" stroke-width="2" stroke-dasharray="5,2" d="M565.94,-756C565.94,-756 500.099,-756 500.099,-756 494.099,-756 488.099,-750 488.099,-744 488.099,-744 488.099,-732 488.099,-732 488.099,-726 494.099,-720 500.099,-720 500.099,-720 565.94,-720 565.94,-720 571.94,-720 577.94,-726 577.94,-732 577.94,-732 577.94,-744 577.94,-744 577.94,-750 571.94,-756 565.94,-756"/>
<text text-anchor="middle" x="533.02" y="-735" font-family="sans" font-size="10.00">samtools_merge</text>
</g>
<!-- 0&#45;&gt;4 -->
<g id="edge6" class="edge"><title>0&#45;&gt;4</title>
<path fill="none" stroke="grey" stroke-width="2" d="M533.02,-791.697C533.02,-783.983 533.02,-774.712 533.02,-766.112"/>
<polygon fill="grey" stroke="grey" stroke-width="2" points="536.52,-766.104 533.02,-756.104 529.52,-766.104 536.52,-766.104"/>
</g>
<!-- 31 -->
<g id="node32" class="node"><title>31</title>
<path fill="none" stroke="#a7d856" stroke-width="2" stroke-dasharray="5,2" d="M540.89,-324C540.89,-324 495.149,-324 495.149,-324 489.149,-324 483.149,-318 483.149,-312 483.149,-312 483.149,-300 483.149,-300 483.149,-294 489.149,-288 495.149,-288 495.149,-288 540.89,-288 540.89,-288 546.89,-288 552.89,-294 552.89,-300 552.89,-300 552.89,-312 552.89,-312 552.89,-318 546.89,-324 540.89,-324"/>
<text text-anchor="middle" x="518.02" y="-303" font-family="sans" font-size="10.00">consensus1</text>
</g>
<!-- 0&#45;&gt;31 -->
<g id="edge40" class="edge"><title>0&#45;&gt;31</title>
<path fill="none" stroke="grey" stroke-width="2" d="M555.845,-791.949C566.881,-782.532 579.364,-769.929 587.02,-756 606.501,-720.554 606.02,-707.447 606.02,-667 606.02,-667 606.02,-667 606.02,-449 606.02,-402.013 570.776,-357.627 544.897,-331.368"/>
<polygon fill="grey" stroke="grey" stroke-width="2" points="547.132,-328.657 537.55,-324.137 542.221,-333.646 547.132,-328.657"/>
</g>
<!-- 32 -->
<g id="node33" class="node"><title>32</title>
<path fill="none" stroke="#56d8a2" stroke-width="2" stroke-dasharray="5,2" d="M366.89,-324C366.89,-324 321.149,-324 321.149,-324 315.149,-324 309.149,-318 309.149,-312 309.149,-312 309.149,-300 309.149,-300 309.149,-294 315.149,-288 321.149,-288 321.149,-288 366.89,-288 366.89,-288 372.89,-288 378.89,-294 378.89,-300 378.89,-300 378.89,-312 378.89,-312 378.89,-318 372.89,-324 366.89,-324"/>
<text text-anchor="middle" x="344.02" y="-303" font-family="sans" font-size="10.00">consensus2</text>
</g>
<!-- 0&#45;&gt;32 -->
<g id="edge43" class="edge"><title>0&#45;&gt;32</title>
<path fill="none" stroke="grey" stroke-width="2" d="M493.59,-806.081C458.403,-801.318 408.077,-788.809 379.02,-756 352.203,-725.721 360.02,-707.447 360.02,-667 360.02,-667 360.02,-667 360.02,-521 360.02,-453.769 352.069,-374.987 347.377,-334.344"/>
<polygon fill="grey" stroke="grey" stroke-width="2" points="350.824,-333.687 346.177,-324.166 343.872,-334.507 350.824,-333.687"/>
</g>
<!-- 1 -->
<g id="node2" class="node"><title>1</title>
<path fill="none" stroke="#70d856" stroke-width="2" stroke-dasharray="5,2" d="M860.266,-828C860.266,-828 805.773,-828 805.773,-828 799.773,-828 793.773,-822 793.773,-816 793.773,-816 793.773,-804 793.773,-804 793.773,-798 799.773,-792 805.773,-792 805.773,-792 860.266,-792 860.266,-792 866.266,-792 872.266,-798 872.266,-804 872.266,-804 872.266,-816 872.266,-816 872.266,-822 866.266,-828 860.266,-828"/>
<text text-anchor="middle" x="833.02" y="-807" font-family="sans" font-size="10.00">samtools_sort</text>
</g>
<!-- 1&#45;&gt;4 -->
<g id="edge7" class="edge"><title>1&#45;&gt;4</title>
<path fill="none" stroke="grey" stroke-width="2" d="M793.8,-799.849C741.251,-787.587 647.719,-765.763 588.115,-751.856"/>
<polygon fill="grey" stroke="grey" stroke-width="2" points="588.659,-748.389 578.125,-749.525 587.068,-755.206 588.659,-748.389"/>
</g>
<!-- 34 -->
<g id="node35" class="node"><title>34</title>
<path fill="none" stroke="#56d8a2" stroke-width="2" stroke-dasharray="5,2" d="M801.89,-324C801.89,-324 756.149,-324 756.149,-324 750.149,-324 744.149,-318 744.149,-312 744.149,-312 744.149,-300 744.149,-300 744.149,-294 750.149,-288 756.149,-288 756.149,-288 801.89,-288 801.89,-288 807.89,-288 813.89,-294 813.89,-300 813.89,-300 813.89,-312 813.89,-312 813.89,-318 807.89,-324 801.89,-324"/>
<text text-anchor="middle" x="779.02" y="-303" font-family="sans" font-size="10.00">consensus2</text>
</g>
<!-- 1&#45;&gt;34 -->
<g id="edge51" class="edge"><title>1&#45;&gt;34</title>
<path fill="none" stroke="grey" stroke-width="2" d="M833.217,-791.951C833.509,-765.292 834.02,-712.116 834.02,-667 834.02,-667 834.02,-667 834.02,-449 834.02,-406.008 811.827,-360.337 795.636,-332.738"/>
<polygon fill="grey" stroke="grey" stroke-width="2" points="798.584,-330.849 790.416,-324.101 792.593,-334.47 798.584,-330.849"/>
</g>
<!-- 36 -->
<g id="node37" class="node"><title>36</title>
<path fill="none" stroke="#a7d856" stroke-width="2" stroke-dasharray="5,2" d="M888.89,-324C888.89,-324 843.149,-324 843.149,-324 837.149,-324 831.149,-318 831.149,-312 831.149,-312 831.149,-300 831.149,-300 831.149,-294 837.149,-288 843.149,-288 843.149,-288 888.89,-288 888.89,-288 894.89,-288 900.89,-294 900.89,-300 900.89,-300 900.89,-312 900.89,-312 900.89,-318 894.89,-324 888.89,-324"/>
<text text-anchor="middle" x="866.02" y="-303" font-family="sans" font-size="10.00">consensus1</text>
</g>
<!-- 1&#45;&gt;36 -->
<g id="edge56" class="edge"><title>1&#45;&gt;36</title>
<path fill="none" stroke="grey" stroke-width="2" d="M840.912,-791.928C852.308,-765.671 872.02,-713.53 872.02,-667 872.02,-667 872.02,-667 872.02,-449 872.02,-408.96 869.609,-362.627 867.844,-334.065"/>
<polygon fill="grey" stroke="grey" stroke-width="2" points="871.334,-333.797 867.205,-324.039 864.348,-334.242 871.334,-333.797"/>
</g>
<!-- 2 -->
<g id="node3" class="node"><title>2</title>
<path fill="none" stroke="#56d8c1" stroke-width="2" stroke-dasharray="5,2" d="M145.88,-900C145.88,-900 110.159,-900 110.159,-900 104.159,-900 98.1591,-894 98.1591,-888 98.1591,-888 98.1591,-876 98.1591,-876 98.1591,-870 104.159,-864 110.159,-864 110.159,-864 145.88,-864 145.88,-864 151.88,-864 157.88,-870 157.88,-876 157.88,-876 157.88,-888 157.88,-888 157.88,-894 151.88,-900 145.88,-900"/>
<text text-anchor="middle" x="128.02" y="-879" font-family="sans" font-size="10.00">bwa_map</text>
</g>
<!-- 5 -->
<g id="node6" class="node"><title>5</title>
<path fill="none" stroke="#70d856" stroke-width="2" stroke-dasharray="5,2" d="M146.266,-828C146.266,-828 91.773,-828 91.773,-828 85.773,-828 79.773,-822 79.773,-816 79.773,-816 79.773,-804 79.773,-804 79.773,-798 85.773,-792 91.773,-792 91.773,-792 146.266,-792 146.266,-792 152.266,-792 158.266,-798 158.266,-804 158.266,-804 158.266,-816 158.266,-816 158.266,-822 152.266,-828 146.266,-828"/>
<text text-anchor="middle" x="119.02" y="-807" font-family="sans" font-size="10.00">samtools_sort</text>
</g>
<!-- 2&#45;&gt;5 -->
<g id="edge10" class="edge"><title>2&#45;&gt;5</title>
<path fill="none" stroke="grey" stroke-width="2" d="M125.795,-863.697C124.803,-855.983 123.611,-846.712 122.505,-838.112"/>
<polygon fill="grey" stroke="grey" stroke-width="2" points="125.965,-837.576 121.219,-828.104 119.023,-838.469 125.965,-837.576"/>
</g>
<!-- 3 -->
<g id="node4" class="node"><title>3</title>
<path fill="none" stroke="#5673d8" stroke-width="2" stroke-dasharray="5,2" d="M458.219,-756C458.219,-756 399.82,-756 399.82,-756 393.82,-756 387.82,-750 387.82,-744 387.82,-744 387.82,-732 387.82,-732 387.82,-726 393.82,-720 399.82,-720 399.82,-720 458.219,-720 458.219,-720 464.219,-720 470.219,-726 470.219,-732 470.219,-732 470.219,-744 470.219,-744 470.219,-750 464.219,-756 458.219,-756"/>
<text text-anchor="middle" x="429.02" y="-735" font-family="sans" font-size="10.00">samtools_faidx</text>
</g>
<!-- 39 -->
<g id="node40" class="node"><title>39</title>
<path fill="none" stroke="#d85656" stroke-width="2" stroke-dasharray="5,2" d="M490.602,-684C490.602,-684 443.437,-684 443.437,-684 437.437,-684 431.437,-678 431.437,-672 431.437,-672 431.437,-660 431.437,-660 431.437,-654 437.437,-648 443.437,-648 443.437,-648 490.602,-648 490.602,-648 496.602,-648 502.602,-654 502.602,-660 502.602,-660 502.602,-672 502.602,-672 502.602,-678 496.602,-684 490.602,-684"/>
<text text-anchor="middle" x="467.02" y="-663" font-family="sans" font-size="10.00">call_variants</text>
</g>
<!-- 3&#45;&gt;39 -->
<g id="edge60" class="edge"><title>3&#45;&gt;39</title>
<path fill="none" stroke="grey" stroke-width="2" d="M438.413,-719.697C442.784,-711.644 448.077,-701.894 452.915,-692.982"/>
<polygon fill="grey" stroke="grey" stroke-width="2" points="456.039,-694.563 457.734,-684.104 449.887,-691.223 456.039,-694.563"/>
</g>
<!-- 14 -->
<g id="node15" class="node"><title>14</title>
<path fill="none" stroke="#bed856" stroke-width="2" stroke-dasharray="5,2" d="M504.842,-540C504.842,-540 445.197,-540 445.197,-540 439.197,-540 433.197,-534 433.197,-528 433.197,-528 433.197,-516 433.197,-516 433.197,-510 439.197,-504 445.197,-504 445.197,-504 504.842,-504 504.842,-504 510.842,-504 516.842,-510 516.842,-516 516.842,-516 516.842,-528 516.842,-528 516.842,-534 510.842,-540 504.842,-540"/>
<text text-anchor="middle" x="475.02" y="-519" font-family="sans" font-size="10.00">phase_variants</text>
</g>
<!-- 4&#45;&gt;14 -->
<g id="edge16" class="edge"><title>4&#45;&gt;14</title>
<path fill="none" stroke="grey" stroke-width="2" d="M533.81,-719.856C534.598,-689.654 533.549,-625.48 514.02,-576 510.119,-566.118 503.905,-556.421 497.574,-548.079"/>
<polygon fill="grey" stroke="grey" stroke-width="2" points="500.27,-545.846 491.285,-540.232 494.808,-550.224 500.27,-545.846"/>
</g>
<!-- 4&#45;&gt;39 -->
<g id="edge59" class="edge"><title>4&#45;&gt;39</title>
<path fill="none" stroke="grey" stroke-width="2" d="M516.705,-719.697C508.712,-711.22 498.948,-700.864 490.197,-691.583"/>
<polygon fill="grey" stroke="grey" stroke-width="2" points="492.553,-688.979 483.146,-684.104 487.46,-693.781 492.553,-688.979"/>
</g>
<!-- 5&#45;&gt;4 -->
<g id="edge9" class="edge"><title>5&#45;&gt;4</title>
<path fill="none" stroke="grey" stroke-width="2" d="M158.286,-805.283C223.105,-798.702 356.597,-783.266 478.231,-755.976"/>
<polygon fill="grey" stroke="grey" stroke-width="2" points="479.112,-759.366 488.085,-753.733 477.558,-752.54 479.112,-759.366"/>
</g>
<!-- 33 -->
<g id="node34" class="node"><title>33</title>
<path fill="none" stroke="#56d8a2" stroke-width="2" stroke-dasharray="5,2" d="M192.89,-324C192.89,-324 147.149,-324 147.149,-324 141.149,-324 135.149,-318 135.149,-312 135.149,-312 135.149,-300 135.149,-300 135.149,-294 141.149,-288 147.149,-288 147.149,-288 192.89,-288 192.89,-288 198.89,-288 204.89,-294 204.89,-300 204.89,-300 204.89,-312 204.89,-312 204.89,-318 198.89,-324 192.89,-324"/>
<text text-anchor="middle" x="170.02" y="-303" font-family="sans" font-size="10.00">consensus2</text>
</g>
<!-- 5&#45;&gt;33 -->
<g id="edge48" class="edge"><title>5&#45;&gt;33</title>
<path fill="none" stroke="grey" stroke-width="2" d="M118.427,-791.953C117.553,-765.297 116.02,-712.125 116.02,-667 116.02,-667 116.02,-667 116.02,-449 116.02,-406.109 137.809,-360.411 153.706,-332.778"/>
<polygon fill="grey" stroke="grey" stroke-width="2" points="156.743,-334.517 158.831,-324.13 150.721,-330.949 156.743,-334.517"/>
</g>
<!-- 44 -->
<g id="node45" class="node"><title>44</title>
<path fill="none" stroke="#a7d856" stroke-width="2" stroke-dasharray="5,2" d="M105.89,-324C105.89,-324 60.1494,-324 60.1494,-324 54.1494,-324 48.1494,-318 48.1494,-312 48.1494,-312 48.1494,-300 48.1494,-300 48.1494,-294 54.1494,-288 60.1494,-288 60.1494,-288 105.89,-288 105.89,-288 111.89,-288 117.89,-294 117.89,-300 117.89,-300 117.89,-312 117.89,-312 117.89,-318 111.89,-324 105.89,-324"/>
<text text-anchor="middle" x="83.0195" y="-303" font-family="sans" font-size="10.00">consensus1</text>
</g>
<!-- 5&#45;&gt;44 -->
<g id="edge78" class="edge"><title>5&#45;&gt;44</title>
<path fill="none" stroke="grey" stroke-width="2" d="M110.723,-791.971C98.7422,-765.77 78.0195,-713.701 78.0195,-667 78.0195,-667 78.0195,-667 78.0195,-449 78.0195,-408.971 80.0285,-362.635 81.4995,-334.07"/>
<polygon fill="grey" stroke="grey" stroke-width="2" points="84.9967,-334.214 82.0317,-324.042 78.0066,-333.843 84.9967,-334.214"/>
</g>
<!-- 6 -->
<g id="node7" class="node"><title>6</title>
<path fill="none" stroke="#56d88a" stroke-width="2" stroke-dasharray="5,2" d="M490.02,-396C490.02,-396 460.02,-396 460.02,-396 454.02,-396 448.02,-390 448.02,-384 448.02,-384 448.02,-372 448.02,-372 448.02,-366 454.02,-360 460.02,-360 460.02,-360 490.02,-360 490.02,-360 496.02,-360 502.02,-366 502.02,-372 502.02,-372 502.02,-384 502.02,-384 502.02,-390 496.02,-396 490.02,-396"/>
<text text-anchor="middle" x="475.02" y="-375" font-family="sans" font-size="10.00">tabix</text>
</g>
<!-- 10 -->
<g id="node11" class="node"><title>10</title>
<path fill="none" stroke="#56d8a2" stroke-width="2" stroke-dasharray="5,2" d="M627.89,-324C627.89,-324 582.149,-324 582.149,-324 576.149,-324 570.149,-318 570.149,-312 570.149,-312 570.149,-300 570.149,-300 570.149,-294 576.149,-288 582.149,-288 582.149,-288 627.89,-288 627.89,-288 633.89,-288 639.89,-294 639.89,-300 639.89,-300 639.89,-312 639.89,-312 639.89,-318 633.89,-324 627.89,-324"/>
<text text-anchor="middle" x="605.02" y="-303" font-family="sans" font-size="10.00">consensus2</text>
</g>
<!-- 6&#45;&gt;10 -->
<g id="edge14" class="edge"><title>6&#45;&gt;10</title>
<path fill="none" stroke="grey" stroke-width="2" d="M502.272,-362.326C520.221,-352.661 544.047,-339.831 564.236,-328.96"/>
<polygon fill="grey" stroke="grey" stroke-width="2" points="566.076,-331.945 573.222,-324.122 562.758,-325.781 566.076,-331.945"/>
</g>
<!-- 21 -->
<g id="node22" class="node"><title>21</title>
<path fill="none" stroke="#56d8a2" stroke-width="2" stroke-dasharray="5,2" d="M279.89,-324C279.89,-324 234.149,-324 234.149,-324 228.149,-324 222.149,-318 222.149,-312 222.149,-312 222.149,-300 222.149,-300 222.149,-294 228.149,-288 234.149,-288 234.149,-288 279.89,-288 279.89,-288 285.89,-288 291.89,-294 291.89,-300 291.89,-300 291.89,-312 291.89,-312 291.89,-318 285.89,-324 279.89,-324"/>
<text text-anchor="middle" x="257.02" y="-303" font-family="sans" font-size="10.00">consensus2</text>
</g>
<!-- 6&#45;&gt;21 -->
<g id="edge26" class="edge"><title>6&#45;&gt;21</title>
<path fill="none" stroke="grey" stroke-width="2" d="M447.815,-369.513C415.103,-360.348 358.374,-343.941 301.921,-324.549"/>
<polygon fill="grey" stroke="grey" stroke-width="2" points="302.726,-321.123 292.131,-321.154 300.432,-327.737 302.726,-321.123"/>
</g>
<!-- 23 -->
<g id="node24" class="node"><title>23</title>
<path fill="none" stroke="#a7d856" stroke-width="2" stroke-dasharray="5,2" d="M453.89,-324C453.89,-324 408.149,-324 408.149,-324 402.149,-324 396.149,-318 396.149,-312 396.149,-312 396.149,-300 396.149,-300 396.149,-294 402.149,-288 408.149,-288 408.149,-288 453.89,-288 453.89,-288 459.89,-288 465.89,-294 465.89,-300 465.89,-300 465.89,-312 465.89,-312 465.89,-318 459.89,-324 453.89,-324"/>
<text text-anchor="middle" x="431.02" y="-303" font-family="sans" font-size="10.00">consensus1</text>
</g>
<!-- 6&#45;&gt;23 -->
<g id="edge31" class="edge"><title>6&#45;&gt;23</title>
<path fill="none" stroke="grey" stroke-width="2" d="M464.143,-359.697C459.028,-351.559 452.824,-341.689 447.175,-332.701"/>
<polygon fill="grey" stroke="grey" stroke-width="2" points="450.056,-330.708 441.771,-324.104 444.129,-334.433 450.056,-330.708"/>
</g>
<!-- 30 -->
<g id="node31" class="node"><title>30</title>
<path fill="none" stroke="#a7d856" stroke-width="2" stroke-dasharray="5,2" d="M714.89,-324C714.89,-324 669.149,-324 669.149,-324 663.149,-324 657.149,-318 657.149,-312 657.149,-312 657.149,-300 657.149,-300 657.149,-294 663.149,-288 669.149,-288 669.149,-288 714.89,-288 714.89,-288 720.89,-288 726.89,-294 726.89,-300 726.89,-300 726.89,-312 726.89,-312 726.89,-318 720.89,-324 714.89,-324"/>
<text text-anchor="middle" x="692.02" y="-303" font-family="sans" font-size="10.00">consensus1</text>
</g>
<!-- 6&#45;&gt;30 -->
<g id="edge39" class="edge"><title>6&#45;&gt;30</title>
<path fill="none" stroke="grey" stroke-width="2" d="M502.065,-369.496C534.587,-360.315 590.988,-343.889 647.164,-324.537"/>
<polygon fill="grey" stroke="grey" stroke-width="2" points="648.611,-327.739 656.907,-321.149 646.312,-321.128 648.611,-327.739"/>
</g>
<!-- 6&#45;&gt;31 -->
<g id="edge42" class="edge"><title>6&#45;&gt;31</title>
<path fill="none" stroke="grey" stroke-width="2" d="M485.649,-359.697C490.648,-351.559 496.711,-341.689 502.232,-332.701"/>
<polygon fill="grey" stroke="grey" stroke-width="2" points="505.261,-334.457 507.513,-324.104 499.296,-330.793 505.261,-334.457"/>
</g>
<!-- 6&#45;&gt;32 -->
<g id="edge45" class="edge"><title>6&#45;&gt;32</title>
<path fill="none" stroke="grey" stroke-width="2" d="M447.876,-362.496C429.809,-352.842 405.731,-339.975 385.307,-329.062"/>
<polygon fill="grey" stroke="grey" stroke-width="2" points="386.684,-325.83 376.215,-324.204 383.385,-332.004 386.684,-325.83"/>
</g>
<!-- 6&#45;&gt;33 -->
<g id="edge47" class="edge"><title>6&#45;&gt;33</title>
<path fill="none" stroke="grey" stroke-width="2" d="M447.856,-373.129C401.532,-366.183 304.272,-350.101 214.789,-324.291"/>
<polygon fill="grey" stroke="grey" stroke-width="2" points="215.623,-320.888 205.042,-321.431 213.652,-327.605 215.623,-320.888"/>
</g>
<!-- 6&#45;&gt;34 -->
<g id="edge50" class="edge"><title>6&#45;&gt;34</title>
<path fill="none" stroke="grey" stroke-width="2" d="M502.079,-373.117C548.225,-366.153 645.113,-350.042 734.283,-324.283"/>
<polygon fill="grey" stroke="grey" stroke-width="2" points="735.389,-327.606 743.997,-321.429 733.416,-320.89 735.389,-327.606"/>
</g>
<!-- 6&#45;&gt;36 -->
<g id="edge55" class="edge"><title>6&#45;&gt;36</title>
<path fill="none" stroke="grey" stroke-width="2" d="M502.077,-374.967C559.624,-370.204 698.334,-356.388 821.101,-324.228"/>
<polygon fill="grey" stroke="grey" stroke-width="2" points="822.279,-327.536 831.038,-321.574 820.474,-320.773 822.279,-327.536"/>
</g>
<!-- 6&#45;&gt;44 -->
<g id="edge77" class="edge"><title>6&#45;&gt;44</title>
<path fill="none" stroke="grey" stroke-width="2" d="M447.884,-374.977C390.172,-370.233 251.062,-356.45 127.964,-324.234"/>
<polygon fill="grey" stroke="grey" stroke-width="2" points="128.565,-320.772 118.001,-321.576 126.761,-327.535 128.565,-320.772"/>
</g>
<!-- 7 -->
<g id="node8" class="node"><title>7</title>
<path fill="none" stroke="#56d8d8" stroke-width="2" stroke-dasharray="5,2" d="M64.0586,-1046C64.0586,-1046 11.9805,-1046 11.9805,-1046 5.98046,-1046 -0.0195413,-1040 -0.0195413,-1034 -0.0195413,-1034 -0.0195413,-1020 -0.0195413,-1020 -0.0195413,-1014 5.98046,-1008 11.9805,-1008 11.9805,-1008 64.0586,-1008 64.0586,-1008 70.0586,-1008 76.0586,-1014 76.0586,-1020 76.0586,-1020 76.0586,-1034 76.0586,-1034 76.0586,-1040 70.0586,-1046 64.0586,-1046"/>
<text text-anchor="middle" x="38.0195" y="-1034" font-family="sans" font-size="10.00">fastq_merge</text>
<text text-anchor="middle" x="38.0195" y="-1024" font-family="sans" font-size="10.00">pair: R1</text>
<text text-anchor="middle" x="38.0195" y="-1014" font-family="sans" font-size="10.00">sample: 2820</text>
</g>
<!-- 19 -->
<g id="node20" class="node"><title>19</title>
<path fill="none" stroke="#56c1d8" stroke-width="2" stroke-dasharray="5,2" d="M147.152,-972C147.152,-972 108.887,-972 108.887,-972 102.887,-972 96.8866,-966 96.8866,-960 96.8866,-960 96.8866,-948 96.8866,-948 96.8866,-942 102.887,-936 108.887,-936 108.887,-936 147.152,-936 147.152,-936 153.152,-936 159.152,-942 159.152,-948 159.152,-948 159.152,-960 159.152,-960 159.152,-966 153.152,-972 147.152,-972"/>
<text text-anchor="middle" x="128.02" y="-951" font-family="sans" font-size="10.00">fastq_filter</text>
</g>
<!-- 7&#45;&gt;19 -->
<g id="edge23" class="edge"><title>7&#45;&gt;19</title>
<path fill="none" stroke="grey" stroke-width="2" d="M61.1968,-1007.72C72.5378,-998.769 86.3188,-987.897 98.4131,-978.356"/>
<polygon fill="grey" stroke="grey" stroke-width="2" points="100.783,-980.945 106.466,-972.003 96.447,-975.449 100.783,-980.945"/>
</g>
<!-- 8 -->
<g id="node9" class="node"><title>8</title>
<path fill="none" stroke="#56d8d8" stroke-width="2" stroke-dasharray="5,2" d="M158.059,-1046C158.059,-1046 105.98,-1046 105.98,-1046 99.9805,-1046 93.9805,-1040 93.9805,-1034 93.9805,-1034 93.9805,-1020 93.9805,-1020 93.9805,-1014 99.9805,-1008 105.98,-1008 105.98,-1008 158.059,-1008 158.059,-1008 164.059,-1008 170.059,-1014 170.059,-1020 170.059,-1020 170.059,-1034 170.059,-1034 170.059,-1040 164.059,-1046 158.059,-1046"/>
<text text-anchor="middle" x="132.02" y="-1034" font-family="sans" font-size="10.00">fastq_merge</text>
<text text-anchor="middle" x="132.02" y="-1024" font-family="sans" font-size="10.00">pair: R2</text>
<text text-anchor="middle" x="132.02" y="-1014" font-family="sans" font-size="10.00">sample: 2820</text>
</g>
<!-- 8&#45;&gt;19 -->
<g id="edge22" class="edge"><title>8&#45;&gt;19</title>
<path fill="none" stroke="grey" stroke-width="2" d="M130.989,-1007.72C130.548,-999.887 130.024,-990.585 129.54,-981.99"/>
<polygon fill="grey" stroke="grey" stroke-width="2" points="133.035,-981.791 128.977,-972.003 126.046,-982.185 133.035,-981.791"/>
</g>
<!-- 9 -->
<g id="node10" class="node"><title>9</title>
<path fill="none" stroke="#56d8d8" stroke-width="2" stroke-dasharray="5,2" d="M830.059,-1046C830.059,-1046 777.98,-1046 777.98,-1046 771.98,-1046 765.98,-1040 765.98,-1034 765.98,-1034 765.98,-1020 765.98,-1020 765.98,-1014 771.98,-1008 777.98,-1008 777.98,-1008 830.059,-1008 830.059,-1008 836.059,-1008 842.059,-1014 842.059,-1020 842.059,-1020 842.059,-1034 842.059,-1034 842.059,-1040 836.059,-1046 830.059,-1046"/>
<text text-anchor="middle" x="804.02" y="-1034" font-family="sans" font-size="10.00">fastq_merge</text>
<text text-anchor="middle" x="804.02" y="-1024" font-family="sans" font-size="10.00">pair: R1</text>
<text text-anchor="middle" x="804.02" y="-1014" font-family="sans" font-size="10.00">sample: 1975</text>
</g>
<!-- 16 -->
<g id="node17" class="node"><title>16</title>
<path fill="none" stroke="#56c1d8" stroke-width="2" stroke-dasharray="5,2" d="M833.152,-972C833.152,-972 794.887,-972 794.887,-972 788.887,-972 782.887,-966 782.887,-960 782.887,-960 782.887,-948 782.887,-948 782.887,-942 788.887,-936 794.887,-936 794.887,-936 833.152,-936 833.152,-936 839.152,-936 845.152,-942 845.152,-948 845.152,-948 845.152,-960 845.152,-960 845.152,-966 839.152,-972 833.152,-972"/>
<text text-anchor="middle" x="814.02" y="-951" font-family="sans" font-size="10.00">fastq_filter</text>
</g>
<!-- 9&#45;&gt;16 -->
<g id="edge18" class="edge"><title>9&#45;&gt;16</title>
<path fill="none" stroke="grey" stroke-width="2" d="M806.595,-1007.72C807.697,-999.887 809.008,-990.585 810.218,-981.99"/>
<polygon fill="grey" stroke="grey" stroke-width="2" points="813.696,-982.394 811.625,-972.003 806.764,-981.418 813.696,-982.394"/>
</g>
<!-- 40 -->
<g id="node41" class="node"><title>40</title>
<path fill="none" stroke="#59d856" stroke-width="2" stroke-dasharray="5,2" d="M502.563,-252C502.563,-252 445.476,-252 445.476,-252 439.476,-252 433.476,-246 433.476,-240 433.476,-240 433.476,-228 433.476,-228 433.476,-222 439.476,-216 445.476,-216 445.476,-216 502.563,-216 502.563,-216 508.563,-216 514.563,-222 514.563,-228 514.563,-228 514.563,-240 514.563,-240 514.563,-246 508.563,-252 502.563,-252"/>
<text text-anchor="middle" x="474.02" y="-231" font-family="sans" font-size="10.00">combine_haps</text>
</g>
<!-- 10&#45;&gt;40 -->
<g id="edge68" class="edge"><title>10&#45;&gt;40</title>
<path fill="none" stroke="grey" stroke-width="2" d="M572.973,-287.876C555.528,-278.554 533.754,-266.919 515.077,-256.939"/>
<polygon fill="grey" stroke="grey" stroke-width="2" points="516.658,-253.816 506.189,-252.19 513.359,-259.99 516.658,-253.816"/>
</g>
<!-- 11 -->
<g id="node12" class="node"><title>11</title>
<path fill="none" stroke="#56d8d8" stroke-width="2" stroke-dasharray="5,2" d="M924.059,-1046C924.059,-1046 871.98,-1046 871.98,-1046 865.98,-1046 859.98,-1040 859.98,-1034 859.98,-1034 859.98,-1020 859.98,-1020 859.98,-1014 865.98,-1008 871.98,-1008 871.98,-1008 924.059,-1008 924.059,-1008 930.059,-1008 936.059,-1014 936.059,-1020 936.059,-1020 936.059,-1034 936.059,-1034 936.059,-1040 930.059,-1046 924.059,-1046"/>
<text text-anchor="middle" x="898.02" y="-1034" font-family="sans" font-size="10.00">fastq_merge</text>
<text text-anchor="middle" x="898.02" y="-1024" font-family="sans" font-size="10.00">pair: R2</text>
<text text-anchor="middle" x="898.02" y="-1014" font-family="sans" font-size="10.00">sample: 1975</text>
</g>
<!-- 11&#45;&gt;16 -->
<g id="edge19" class="edge"><title>11&#45;&gt;16</title>
<path fill="none" stroke="grey" stroke-width="2" d="M876.387,-1007.72C865.904,-998.855 853.187,-988.106 841.978,-978.632"/>
<polygon fill="grey" stroke="grey" stroke-width="2" points="844.033,-975.786 834.136,-972.003 839.514,-981.132 844.033,-975.786"/>
</g>
<!-- 12 -->
<g id="node13" class="node"><title>12</title>
<path fill="none" stroke="#56d8d8" stroke-width="2" stroke-dasharray="5,2" d="M451.059,-1046C451.059,-1046 398.98,-1046 398.98,-1046 392.98,-1046 386.98,-1040 386.98,-1034 386.98,-1034 386.98,-1020 386.98,-1020 386.98,-1014 392.98,-1008 398.98,-1008 398.98,-1008 451.059,-1008 451.059,-1008 457.059,-1008 463.059,-1014 463.059,-1020 463.059,-1020 463.059,-1034 463.059,-1034 463.059,-1040 457.059,-1046 451.059,-1046"/>
<text text-anchor="middle" x="425.02" y="-1034" font-family="sans" font-size="10.00">fastq_merge</text>
<text text-anchor="middle" x="425.02" y="-1024" font-family="sans" font-size="10.00">pair: R1</text>
<text text-anchor="middle" x="425.02" y="-1014" font-family="sans" font-size="10.00">sample: 1536</text>
</g>
<!-- 42 -->
<g id="node43" class="node"><title>42</title>
<path fill="none" stroke="#56c1d8" stroke-width="2" stroke-dasharray="5,2" d="M508.152,-972C508.152,-972 469.887,-972 469.887,-972 463.887,-972 457.887,-966 457.887,-960 457.887,-960 457.887,-948 457.887,-948 457.887,-942 463.887,-936 469.887,-936 469.887,-936 508.152,-936 508.152,-936 514.152,-936 520.152,-942 520.152,-948 520.152,-948 520.152,-960 520.152,-960 520.152,-966 514.152,-972 508.152,-972"/>
<text text-anchor="middle" x="489.02" y="-951" font-family="sans" font-size="10.00">fastq_filter</text>
</g>
<!-- 12&#45;&gt;42 -->
<g id="edge73" class="edge"><title>12&#45;&gt;42</title>
<path fill="none" stroke="grey" stroke-width="2" d="M441.501,-1007.72C449.256,-999.113 458.614,-988.731 466.969,-979.463"/>
<polygon fill="grey" stroke="grey" stroke-width="2" points="469.597,-981.775 473.692,-972.003 464.397,-977.088 469.597,-981.775"/>
</g>
<!-- 13 -->
<g id="node14" class="node"><title>13</title>
<path fill="none" stroke="#d6d856" stroke-width="2" stroke-dasharray="5,2" d="M492.989,-612C492.989,-612 441.05,-612 441.05,-612 435.05,-612 429.05,-606 429.05,-600 429.05,-600 429.05,-588 429.05,-588 429.05,-582 435.05,-576 441.05,-576 441.05,-576 492.989,-576 492.989,-576 498.989,-576 504.989,-582 504.989,-588 504.989,-588 504.989,-600 504.989,-600 504.989,-606 498.989,-612 492.989,-612"/>
<text text-anchor="middle" x="467.02" y="-591" font-family="sans" font-size="10.00">filter_variants</text>
</g>
<!-- 13&#45;&gt;14 -->
<g id="edge17" class="edge"><title>13&#45;&gt;14</title>
<path fill="none" stroke="grey" stroke-width="2" d="M468.997,-575.697C469.879,-567.983 470.938,-558.712 471.921,-550.112"/>
<polygon fill="grey" stroke="grey" stroke-width="2" points="475.407,-550.437 473.065,-540.104 468.452,-549.642 475.407,-550.437"/>
</g>
<!-- 45 -->
<g id="node46" class="node"><title>45</title>
<path fill="none" stroke="#d88d56" stroke-width="2" stroke-dasharray="5,2" d="M490.02,-468C490.02,-468 460.02,-468 460.02,-468 454.02,-468 448.02,-462 448.02,-456 448.02,-456 448.02,-444 448.02,-444 448.02,-438 454.02,-432 460.02,-432 460.02,-432 490.02,-432 490.02,-432 496.02,-432 502.02,-438 502.02,-444 502.02,-444 502.02,-456 502.02,-456 502.02,-462 496.02,-468 490.02,-468"/>
<text text-anchor="middle" x="475.02" y="-447" font-family="sans" font-size="10.00">bgzip</text>
</g>
<!-- 14&#45;&gt;45 -->
<g id="edge79" class="edge"><title>14&#45;&gt;45</title>
<path fill="none" stroke="grey" stroke-width="2" d="M475.02,-503.697C475.02,-495.983 475.02,-486.712 475.02,-478.112"/>
<polygon fill="grey" stroke="grey" stroke-width="2" points="478.52,-478.104 475.02,-468.104 471.52,-478.104 478.52,-478.104"/>
</g>
<!-- 15 -->
<g id="node16" class="node"><title>15</title>
<path fill="none" stroke="#56d8d8" stroke-width="2" stroke-dasharray="5,2" d="M258.059,-1046C258.059,-1046 205.98,-1046 205.98,-1046 199.98,-1046 193.98,-1040 193.98,-1034 193.98,-1034 193.98,-1020 193.98,-1020 193.98,-1014 199.98,-1008 205.98,-1008 205.98,-1008 258.059,-1008 258.059,-1008 264.059,-1008 270.059,-1014 270.059,-1020 270.059,-1020 270.059,-1034 270.059,-1034 270.059,-1040 264.059,-1046 258.059,-1046"/>
<text text-anchor="middle" x="232.02" y="-1034" font-family="sans" font-size="10.00">fastq_merge</text>
<text text-anchor="middle" x="232.02" y="-1024" font-family="sans" font-size="10.00">pair: R1</text>
<text text-anchor="middle" x="232.02" y="-1014" font-family="sans" font-size="10.00">sample: 1961</text>
</g>
<!-- 22 -->
<g id="node23" class="node"><title>22</title>
<path fill="none" stroke="#56c1d8" stroke-width="2" stroke-dasharray="5,2" d="M344.152,-972C344.152,-972 305.887,-972 305.887,-972 299.887,-972 293.887,-966 293.887,-960 293.887,-960 293.887,-948 293.887,-948 293.887,-942 299.887,-936 305.887,-936 305.887,-936 344.152,-936 344.152,-936 350.152,-936 356.152,-942 356.152,-948 356.152,-948 356.152,-960 356.152,-960 356.152,-966 350.152,-972 344.152,-972"/>
<text text-anchor="middle" x="325.02" y="-951" font-family="sans" font-size="10.00">fastq_filter</text>
</g>
<!-- 15&#45;&gt;22 -->
<g id="edge27" class="edge"><title>15&#45;&gt;22</title>
<path fill="none" stroke="grey" stroke-width="2" d="M255.969,-1007.72C267.801,-998.683 282.203,-987.688 294.786,-978.081"/>
<polygon fill="grey" stroke="grey" stroke-width="2" points="296.923,-980.854 302.747,-972.003 292.675,-975.29 296.923,-980.854"/>
</g>
<!-- 24 -->
<g id="node25" class="node"><title>24</title>
<path fill="none" stroke="#56d8c1" stroke-width="2" stroke-dasharray="5,2" d="M831.88,-900C831.88,-900 796.159,-900 796.159,-900 790.159,-900 784.159,-894 784.159,-888 784.159,-888 784.159,-876 784.159,-876 784.159,-870 790.159,-864 796.159,-864 796.159,-864 831.88,-864 831.88,-864 837.88,-864 843.88,-870 843.88,-876 843.88,-876 843.88,-888 843.88,-888 843.88,-894 837.88,-900 831.88,-900"/>
<text text-anchor="middle" x="814.02" y="-879" font-family="sans" font-size="10.00">bwa_map</text>
</g>
<!-- 16&#45;&gt;24 -->
<g id="edge33" class="edge"><title>16&#45;&gt;24</title>
<path fill="none" stroke="grey" stroke-width="2" d="M814.02,-935.697C814.02,-927.983 814.02,-918.712 814.02,-910.112"/>
<polygon fill="grey" stroke="grey" stroke-width="2" points="817.52,-910.104 814.02,-900.104 810.52,-910.104 817.52,-910.104"/>
</g>
<!-- 17 -->
<g id="node18" class="node"><title>17</title>
<path fill="none" stroke="#56a2d8" stroke-width="2" stroke-dasharray="5,2" d="M493.157,-108C493.157,-108 454.882,-108 454.882,-108 448.882,-108 442.882,-102 442.882,-96 442.882,-96 442.882,-84 442.882,-84 442.882,-78 448.882,-72 454.882,-72 454.882,-72 493.157,-72 493.157,-72 499.157,-72 505.157,-78 505.157,-84 505.157,-84 505.157,-96 505.157,-96 505.157,-102 499.157,-108 493.157,-108"/>
<text text-anchor="middle" x="474.02" y="-87" font-family="sans" font-size="10.00">filter_haps</text>
</g>
<!-- 43 -->
<g id="node44" class="node"><title>43</title>
<path fill="none" stroke="#568ad8" stroke-width="2" stroke-dasharray="5,2" d="M491.266,-36C491.266,-36 456.773,-36 456.773,-36 450.773,-36 444.773,-30 444.773,-24 444.773,-24 444.773,-12 444.773,-12 444.773,-6 450.773,-0 456.773,-0 456.773,-0 491.266,-0 491.266,-0 497.266,-0 503.266,-6 503.266,-12 503.266,-12 503.266,-24 503.266,-24 503.266,-30 497.266,-36 491.266,-36"/>
<text text-anchor="middle" x="474.02" y="-15" font-family="sans" font-size="10.00">snp_sites</text>
</g>
<!-- 17&#45;&gt;43 -->
<g id="edge75" class="edge"><title>17&#45;&gt;43</title>
<path fill="none" stroke="grey" stroke-width="2" d="M474.02,-71.6966C474.02,-63.9827 474.02,-54.7125 474.02,-46.1124"/>
<polygon fill="grey" stroke="grey" stroke-width="2" points="477.52,-46.1043 474.02,-36.1043 470.52,-46.1044 477.52,-46.1043"/>
</g>
<!-- 18 -->
<g id="node19" class="node"><title>18</title>
<path fill="none" stroke="#70d856" stroke-width="2" stroke-dasharray="5,2" d="M350.266,-828C350.266,-828 295.773,-828 295.773,-828 289.773,-828 283.773,-822 283.773,-816 283.773,-816 283.773,-804 283.773,-804 283.773,-798 289.773,-792 295.773,-792 295.773,-792 350.266,-792 350.266,-792 356.266,-792 362.266,-798 362.266,-804 362.266,-804 362.266,-816 362.266,-816 362.266,-822 356.266,-828 350.266,-828"/>
<text text-anchor="middle" x="323.02" y="-807" font-family="sans" font-size="10.00">samtools_sort</text>
</g>
<!-- 18&#45;&gt;4 -->
<g id="edge5" class="edge"><title>18&#45;&gt;4</title>
<path fill="none" stroke="grey" stroke-width="2" d="M362.519,-795.834C395.099,-784.973 441.689,-769.444 477.936,-757.361"/>
<polygon fill="grey" stroke="grey" stroke-width="2" points="479.484,-760.534 487.864,-754.052 477.271,-753.894 479.484,-760.534"/>
</g>
<!-- 18&#45;&gt;21 -->
<g id="edge24" class="edge"><title>18&#45;&gt;21</title>
<path fill="none" stroke="grey" stroke-width="2" d="M289.963,-791.801C251.155,-768.961 192.02,-724.691 192.02,-667 192.02,-667 192.02,-667 192.02,-449 192.02,-404.963 218.185,-359.645 237.313,-332.398"/>
<polygon fill="grey" stroke="grey" stroke-width="2" points="240.21,-334.365 243.235,-324.211 234.538,-330.262 240.21,-334.365"/>
</g>
<!-- 18&#45;&gt;23 -->
<g id="edge29" class="edge"><title>18&#45;&gt;23</title>
<path fill="none" stroke="grey" stroke-width="2" d="M322.822,-791.951C322.531,-765.292 322.02,-712.116 322.02,-667 322.02,-667 322.02,-667 322.02,-521 322.02,-445.606 376.402,-369.951 408.342,-332.019"/>
<polygon fill="grey" stroke="grey" stroke-width="2" points="411.305,-333.941 415.17,-324.077 405.997,-329.378 411.305,-333.941"/>
</g>
<!-- 19&#45;&gt;2 -->
<g id="edge3" class="edge"><title>19&#45;&gt;2</title>
<path fill="none" stroke="grey" stroke-width="2" d="M128.02,-935.697C128.02,-927.983 128.02,-918.712 128.02,-910.112"/>
<polygon fill="grey" stroke="grey" stroke-width="2" points="131.52,-910.104 128.02,-900.104 124.52,-910.104 131.52,-910.104"/>
</g>
<!-- 20 -->
<g id="node21" class="node"><title>20</title>
<path fill="none" stroke="#56d8d8" stroke-width="2" stroke-dasharray="5,2" d="M545.059,-1046C545.059,-1046 492.98,-1046 492.98,-1046 486.98,-1046 480.98,-1040 480.98,-1034 480.98,-1034 480.98,-1020 480.98,-1020 480.98,-1014 486.98,-1008 492.98,-1008 492.98,-1008 545.059,-1008 545.059,-1008 551.059,-1008 557.059,-1014 557.059,-1020 557.059,-1020 557.059,-1034 557.059,-1034 557.059,-1040 551.059,-1046 545.059,-1046"/>
<text text-anchor="middle" x="519.02" y="-1034" font-family="sans" font-size="10.00">fastq_merge</text>
<text text-anchor="middle" x="519.02" y="-1024" font-family="sans" font-size="10.00">pair: R2</text>
<text text-anchor="middle" x="519.02" y="-1014" font-family="sans" font-size="10.00">sample: 1536</text>
</g>
<!-- 20&#45;&gt;42 -->
<g id="edge74" class="edge"><title>20&#45;&gt;42</title>
<path fill="none" stroke="grey" stroke-width="2" d="M511.294,-1007.72C507.913,-999.715 503.882,-990.175 500.185,-981.424"/>
<polygon fill="grey" stroke="grey" stroke-width="2" points="503.32,-979.853 496.204,-972.003 496.872,-982.577 503.32,-979.853"/>
</g>
<!-- 21&#45;&gt;40 -->
<g id="edge62" class="edge"><title>21&#45;&gt;40</title>
<path fill="none" stroke="grey" stroke-width="2" d="M292.132,-290.851C294.792,-289.861 297.443,-288.9 300.02,-288 341.127,-273.64 388.432,-259.373 423.332,-249.265"/>
<polygon fill="grey" stroke="grey" stroke-width="2" points="424.647,-252.529 433.287,-246.397 422.709,-245.802 424.647,-252.529"/>
</g>
<!-- 35 -->
<g id="node36" class="node"><title>35</title>
<path fill="none" stroke="#56d8c1" stroke-width="2" stroke-dasharray="5,2" d="M342.88,-900C342.88,-900 307.159,-900 307.159,-900 301.159,-900 295.159,-894 295.159,-888 295.159,-888 295.159,-876 295.159,-876 295.159,-870 301.159,-864 307.159,-864 307.159,-864 342.88,-864 342.88,-864 348.88,-864 354.88,-870 354.88,-876 354.88,-876 354.88,-888 354.88,-888 354.88,-894 348.88,-900 342.88,-900"/>
<text text-anchor="middle" x="325.02" y="-879" font-family="sans" font-size="10.00">bwa_map</text>
</g>
<!-- 22&#45;&gt;35 -->
<g id="edge52" class="edge"><title>22&#45;&gt;35</title>
<path fill="none" stroke="grey" stroke-width="2" d="M325.02,-935.697C325.02,-927.983 325.02,-918.712 325.02,-910.112"/>
<polygon fill="grey" stroke="grey" stroke-width="2" points="328.52,-910.104 325.02,-900.104 321.52,-910.104 328.52,-910.104"/>
</g>
<!-- 23&#45;&gt;40 -->
<g id="edge63" class="edge"><title>23&#45;&gt;40</title>
<path fill="none" stroke="grey" stroke-width="2" d="M441.649,-287.697C446.648,-279.559 452.711,-269.689 458.232,-260.701"/>
<polygon fill="grey" stroke="grey" stroke-width="2" points="461.261,-262.457 463.513,-252.104 455.296,-258.793 461.261,-262.457"/>
</g>
<!-- 24&#45;&gt;1 -->
<g id="edge2" class="edge"><title>24&#45;&gt;1</title>
<path fill="none" stroke="grey" stroke-width="2" d="M818.716,-863.697C820.833,-855.898 823.382,-846.509 825.737,-837.829"/>
<polygon fill="grey" stroke="grey" stroke-width="2" points="829.135,-838.672 828.377,-828.104 822.38,-836.838 829.135,-838.672"/>
</g>
<!-- 25 -->
<g id="node26" class="node"><title>25</title>
<path fill="none" stroke="#56d8c1" stroke-width="2" stroke-dasharray="5,2" d="M550.88,-900C550.88,-900 515.159,-900 515.159,-900 509.159,-900 503.159,-894 503.159,-888 503.159,-888 503.159,-876 503.159,-876 503.159,-870 509.159,-864 515.159,-864 515.159,-864 550.88,-864 550.88,-864 556.88,-864 562.88,-870 562.88,-876 562.88,-876 562.88,-888 562.88,-888 562.88,-894 556.88,-900 550.88,-900"/>
<text text-anchor="middle" x="533.02" y="-879" font-family="sans" font-size="10.00">bwa_map</text>
</g>
<!-- 25&#45;&gt;0 -->
<g id="edge1" class="edge"><title>25&#45;&gt;0</title>
<path fill="none" stroke="grey" stroke-width="2" d="M533.02,-863.697C533.02,-855.983 533.02,-846.712 533.02,-838.112"/>
<polygon fill="grey" stroke="grey" stroke-width="2" points="536.52,-838.104 533.02,-828.104 529.52,-838.104 536.52,-838.104"/>
</g>
<!-- 26 -->
<g id="node27" class="node"><title>26</title>
<path fill="none" stroke="#56d8d8" stroke-width="2" stroke-dasharray="5,2" d="M641.059,-1046C641.059,-1046 588.98,-1046 588.98,-1046 582.98,-1046 576.98,-1040 576.98,-1034 576.98,-1034 576.98,-1020 576.98,-1020 576.98,-1014 582.98,-1008 588.98,-1008 588.98,-1008 641.059,-1008 641.059,-1008 647.059,-1008 653.059,-1014 653.059,-1020 653.059,-1020 653.059,-1034 653.059,-1034 653.059,-1040 647.059,-1046 641.059,-1046"/>
<text text-anchor="middle" x="615.02" y="-1034" font-family="sans" font-size="10.00">fastq_merge</text>
<text text-anchor="middle" x="615.02" y="-1024" font-family="sans" font-size="10.00">pair: R2</text>
<text text-anchor="middle" x="615.02" y="-1014" font-family="sans" font-size="10.00">sample: 1531</text>
</g>
<!-- 41 -->
<g id="node42" class="node"><title>41</title>
<path fill="none" stroke="#56c1d8" stroke-width="2" stroke-dasharray="5,2" d="M695.152,-972C695.152,-972 656.887,-972 656.887,-972 650.887,-972 644.887,-966 644.887,-960 644.887,-960 644.887,-948 644.887,-948 644.887,-942 650.887,-936 656.887,-936 656.887,-936 695.152,-936 695.152,-936 701.152,-936 707.152,-942 707.152,-948 707.152,-948 707.152,-960 707.152,-960 707.152,-966 701.152,-972 695.152,-972"/>
<text text-anchor="middle" x="676.02" y="-951" font-family="sans" font-size="10.00">fastq_filter</text>
</g>
<!-- 26&#45;&gt;41 -->
<g id="edge72" class="edge"><title>26&#45;&gt;41</title>
<path fill="none" stroke="grey" stroke-width="2" d="M630.729,-1007.72C638.046,-999.199 646.861,-988.938 654.763,-979.741"/>
<polygon fill="grey" stroke="grey" stroke-width="2" points="657.549,-981.869 661.411,-972.003 652.239,-977.308 657.549,-981.869"/>
</g>
<!-- 27 -->
<g id="node28" class="node"><title>27</title>
<path fill="none" stroke="#70d856" stroke-width="2" stroke-dasharray="5,2" d="M708.266,-828C708.266,-828 653.773,-828 653.773,-828 647.773,-828 641.773,-822 641.773,-816 641.773,-816 641.773,-804 641.773,-804 641.773,-798 647.773,-792 653.773,-792 653.773,-792 708.266,-792 708.266,-792 714.266,-792 720.266,-798 720.266,-804 720.266,-804 720.266,-816 720.266,-816 720.266,-822 714.266,-828 708.266,-828"/>
<text text-anchor="middle" x="681.02" y="-807" font-family="sans" font-size="10.00">samtools_sort</text>
</g>
<!-- 27&#45;&gt;4 -->
<g id="edge8" class="edge"><title>27&#45;&gt;4</title>
<path fill="none" stroke="grey" stroke-width="2" d="M644.815,-791.876C624.762,-782.392 599.648,-770.513 578.305,-760.419"/>
<polygon fill="grey" stroke="grey" stroke-width="2" points="579.643,-757.18 569.107,-756.068 576.65,-763.508 579.643,-757.18"/>
</g>
<!-- 27&#45;&gt;10 -->
<g id="edge12" class="edge"><title>27&#45;&gt;10</title>
<path fill="none" stroke="grey" stroke-width="2" d="M681.217,-791.951C681.509,-765.292 682.02,-712.116 682.02,-667 682.02,-667 682.02,-667 682.02,-449 682.02,-403.507 651.101,-358.651 628.449,-331.892"/>
<polygon fill="grey" stroke="grey" stroke-width="2" points="630.939,-329.422 621.727,-324.188 625.664,-334.024 630.939,-329.422"/>
</g>
<!-- 27&#45;&gt;30 -->
<g id="edge37" class="edge"><title>27&#45;&gt;30</title>
<path fill="none" stroke="grey" stroke-width="2" d="M697.727,-791.812C720.374,-766.622 758.02,-717.199 758.02,-667 758.02,-667 758.02,-667 758.02,-449 758.02,-404.845 731.452,-359.558 712.029,-332.35"/>
<polygon fill="grey" stroke="grey" stroke-width="2" points="714.761,-330.158 706.016,-324.176 709.122,-334.306 714.761,-330.158"/>
</g>
<!-- 28 -->
<g id="node29" class="node"><title>28</title>
<path fill="none" stroke="#56d8d8" stroke-width="2" stroke-dasharray="5,2" d="M352.059,-1046C352.059,-1046 299.98,-1046 299.98,-1046 293.98,-1046 287.98,-1040 287.98,-1034 287.98,-1034 287.98,-1020 287.98,-1020 287.98,-1014 293.98,-1008 299.98,-1008 299.98,-1008 352.059,-1008 352.059,-1008 358.059,-1008 364.059,-1014 364.059,-1020 364.059,-1020 364.059,-1034 364.059,-1034 364.059,-1040 358.059,-1046 352.059,-1046"/>
<text text-anchor="middle" x="326.02" y="-1034" font-family="sans" font-size="10.00">fastq_merge</text>
<text text-anchor="middle" x="326.02" y="-1024" font-family="sans" font-size="10.00">pair: R2</text>
<text text-anchor="middle" x="326.02" y="-1014" font-family="sans" font-size="10.00">sample: 1961</text>
</g>
<!-- 28&#45;&gt;22 -->
<g id="edge28" class="edge"><title>28&#45;&gt;22</title>
<path fill="none" stroke="grey" stroke-width="2" d="M325.762,-1007.72C325.653,-999.973 325.524,-990.789 325.404,-982.274"/>
<polygon fill="grey" stroke="grey" stroke-width="2" points="328.9,-981.953 325.259,-972.003 321.9,-982.052 328.9,-981.953"/>
</g>
<!-- 29 -->
<g id="node30" class="node"><title>29</title>
<path fill="none" stroke="#56d8d8" stroke-width="2" stroke-dasharray="5,2" d="M735.059,-1046C735.059,-1046 682.98,-1046 682.98,-1046 676.98,-1046 670.98,-1040 670.98,-1034 670.98,-1034 670.98,-1020 670.98,-1020 670.98,-1014 676.98,-1008 682.98,-1008 682.98,-1008 735.059,-1008 735.059,-1008 741.059,-1008 747.059,-1014 747.059,-1020 747.059,-1020 747.059,-1034 747.059,-1034 747.059,-1040 741.059,-1046 735.059,-1046"/>
<text text-anchor="middle" x="709.02" y="-1034" font-family="sans" font-size="10.00">fastq_merge</text>
<text text-anchor="middle" x="709.02" y="-1024" font-family="sans" font-size="10.00">pair: R1</text>
<text text-anchor="middle" x="709.02" y="-1014" font-family="sans" font-size="10.00">sample: 1531</text>
</g>
<!-- 29&#45;&gt;41 -->
<g id="edge71" class="edge"><title>29&#45;&gt;41</title>
<path fill="none" stroke="grey" stroke-width="2" d="M700.521,-1007.72C696.763,-999.629 692.273,-989.97 688.17,-981.142"/>
<polygon fill="grey" stroke="grey" stroke-width="2" points="691.311,-979.597 683.923,-972.003 684.964,-982.547 691.311,-979.597"/>
</g>
<!-- 30&#45;&gt;40 -->
<g id="edge69" class="edge"><title>30&#45;&gt;40</title>
<path fill="none" stroke="grey" stroke-width="2" d="M656.908,-290.846C654.248,-289.857 651.597,-288.898 649.02,-288 607.548,-273.55 559.793,-259.239 524.657,-249.138"/>
<polygon fill="grey" stroke="grey" stroke-width="2" points="525.215,-245.657 514.638,-246.273 523.291,-252.388 525.215,-245.657"/>
</g>
<!-- 31&#45;&gt;40 -->
<g id="edge65" class="edge"><title>31&#45;&gt;40</title>
<path fill="none" stroke="grey" stroke-width="2" d="M507.143,-287.697C502.028,-279.559 495.824,-269.689 490.175,-260.701"/>
<polygon fill="grey" stroke="grey" stroke-width="2" points="493.056,-258.708 484.771,-252.104 487.129,-262.433 493.056,-258.708"/>
</g>
<!-- 32&#45;&gt;40 -->
<g id="edge66" class="edge"><title>32&#45;&gt;40</title>
<path fill="none" stroke="grey" stroke-width="2" d="M375.821,-287.876C393.133,-278.554 414.741,-266.919 433.276,-256.939"/>
<polygon fill="grey" stroke="grey" stroke-width="2" points="434.95,-260.012 442.096,-252.19 431.632,-253.849 434.95,-260.012"/>
</g>
<!-- 33&#45;&gt;40 -->
<g id="edge67" class="edge"><title>33&#45;&gt;40</title>
<path fill="none" stroke="grey" stroke-width="2" d="M205.042,-290.571C207.723,-289.646 210.403,-288.776 213.02,-288 284.705,-266.732 369.977,-251.184 423.062,-242.617"/>
<polygon fill="grey" stroke="grey" stroke-width="2" points="423.911,-246.026 433.236,-240.997 422.81,-239.113 423.911,-246.026"/>
</g>
<!-- 34&#45;&gt;40 -->
<g id="edge61" class="edge"><title>34&#45;&gt;40</title>
<path fill="none" stroke="grey" stroke-width="2" d="M743.997,-290.569C741.317,-289.645 738.636,-288.775 736.02,-288 663.912,-266.636 578.106,-251.081 524.841,-242.542"/>
<polygon fill="grey" stroke="grey" stroke-width="2" points="525.384,-239.085 514.96,-240.979 524.29,-245.999 525.384,-239.085"/>
</g>
<!-- 35&#45;&gt;18 -->
<g id="edge21" class="edge"><title>35&#45;&gt;18</title>
<path fill="none" stroke="grey" stroke-width="2" d="M324.525,-863.697C324.305,-855.983 324.04,-846.712 323.794,-838.112"/>
<polygon fill="grey" stroke="grey" stroke-width="2" points="327.292,-838 323.508,-828.104 320.295,-838.2 327.292,-838"/>
</g>
<!-- 36&#45;&gt;40 -->
<g id="edge70" class="edge"><title>36&#45;&gt;40</title>
<path fill="none" stroke="grey" stroke-width="2" d="M831.038,-290.424C828.348,-289.533 825.655,-288.711 823.02,-288 719.044,-259.939 593.365,-245.429 524.773,-239.088"/>
<polygon fill="grey" stroke="grey" stroke-width="2" points="524.946,-235.59 514.671,-238.175 524.316,-242.561 524.946,-235.59"/>
</g>
<!-- 37 -->
<g id="node38" class="node"><title>37</title>
<path fill="none" stroke="#d86e56" stroke-width="2" stroke-dasharray="5,2" d="M589.832,-972C589.832,-972 550.207,-972 550.207,-972 544.207,-972 538.207,-966 538.207,-960 538.207,-960 538.207,-948 538.207,-948 538.207,-942 544.207,-936 550.207,-936 550.207,-936 589.832,-936 589.832,-936 595.832,-936 601.832,-942 601.832,-948 601.832,-948 601.832,-960 601.832,-960 601.832,-966 595.832,-972 589.832,-972"/>
<text text-anchor="middle" x="570.02" y="-951" font-family="sans" font-size="10.00">bwa_index</text>
</g>
<!-- 37&#45;&gt;2 -->
<g id="edge4" class="edge"><title>37&#45;&gt;2</title>
<path fill="none" stroke="grey" stroke-width="2" d="M538.068,-938.822C535.044,-937.763 531.996,-936.799 529.02,-936 494.577,-926.755 262.31,-898.811 167.851,-887.664"/>
<polygon fill="grey" stroke="grey" stroke-width="2" points="168.168,-884.177 157.827,-886.483 167.349,-891.129 168.168,-884.177"/>
</g>
<!-- 37&#45;&gt;24 -->
<g id="edge32" class="edge"><title>37&#45;&gt;24</title>
<path fill="none" stroke="grey" stroke-width="2" d="M601.918,-943.849C646.178,-931.151 726.185,-908.198 774.275,-894.402"/>
<polygon fill="grey" stroke="grey" stroke-width="2" points="775.381,-897.726 784.028,-891.604 773.45,-890.998 775.381,-897.726"/>
</g>
<!-- 37&#45;&gt;25 -->
<g id="edge35" class="edge"><title>37&#45;&gt;25</title>
<path fill="none" stroke="grey" stroke-width="2" d="M560.873,-935.697C556.617,-927.644 551.464,-917.894 546.753,-908.982"/>
<polygon fill="grey" stroke="grey" stroke-width="2" points="549.828,-907.31 542.06,-900.104 543.639,-910.581 549.828,-907.31"/>
</g>
<!-- 37&#45;&gt;35 -->
<g id="edge53" class="edge"><title>37&#45;&gt;35</title>
<path fill="none" stroke="grey" stroke-width="2" d="M537.951,-939.209C534.952,-938.069 531.942,-936.98 529.02,-936 472.89,-917.173 406.228,-900.975 364.764,-891.601"/>
<polygon fill="grey" stroke="grey" stroke-width="2" points="365.31,-888.137 354.787,-889.368 363.781,-894.968 365.31,-888.137"/>
</g>
<!-- 38 -->
<g id="node39" class="node"><title>38</title>
<path fill="none" stroke="#56d8c1" stroke-width="2" stroke-dasharray="5,2" d="M693.88,-900C693.88,-900 658.159,-900 658.159,-900 652.159,-900 646.159,-894 646.159,-888 646.159,-888 646.159,-876 646.159,-876 646.159,-870 652.159,-864 658.159,-864 658.159,-864 693.88,-864 693.88,-864 699.88,-864 705.88,-870 705.88,-876 705.88,-876 705.88,-888 705.88,-888 705.88,-894 699.88,-900 693.88,-900"/>
<text text-anchor="middle" x="676.02" y="-879" font-family="sans" font-size="10.00">bwa_map</text>
</g>
<!-- 37&#45;&gt;38 -->
<g id="edge58" class="edge"><title>37&#45;&gt;38</title>
<path fill="none" stroke="grey" stroke-width="2" d="M595.95,-935.876C609.681,-926.808 626.726,-915.552 641.556,-905.759"/>
<polygon fill="grey" stroke="grey" stroke-width="2" points="643.573,-908.621 649.989,-900.19 639.716,-902.78 643.573,-908.621"/>
</g>
<!-- 38&#45;&gt;27 -->
<g id="edge36" class="edge"><title>38&#45;&gt;27</title>
<path fill="none" stroke="grey" stroke-width="2" d="M677.255,-863.697C677.806,-855.983 678.469,-846.712 679.083,-838.112"/>
<polygon fill="grey" stroke="grey" stroke-width="2" points="682.576,-838.328 679.798,-828.104 675.594,-837.83 682.576,-838.328"/>
</g>
<!-- 39&#45;&gt;13 -->
<g id="edge15" class="edge"><title>39&#45;&gt;13</title>
<path fill="none" stroke="grey" stroke-width="2" d="M467.02,-647.697C467.02,-639.983 467.02,-630.712 467.02,-622.112"/>
<polygon fill="grey" stroke="grey" stroke-width="2" points="470.52,-622.104 467.02,-612.104 463.52,-622.104 470.52,-622.104"/>
</g>
<!-- 46 -->
<g id="node47" class="node"><title>46</title>
<path fill="none" stroke="#88d856" stroke-width="2" stroke-dasharray="5,2" d="M499.999,-180C499.999,-180 448.04,-180 448.04,-180 442.04,-180 436.04,-174 436.04,-168 436.04,-168 436.04,-156 436.04,-156 436.04,-150 442.04,-144 448.04,-144 448.04,-144 499.999,-144 499.999,-144 505.999,-144 511.999,-150 511.999,-156 511.999,-156 511.999,-168 511.999,-168 511.999,-174 505.999,-180 499.999,-180"/>
<text text-anchor="middle" x="474.02" y="-164" font-family="sans" font-size="10.00">align_haps</text>
<text text-anchor="middle" x="474.02" y="-154" font-family="sans" font-size="10.00">locus: E10C6</text>
</g>
<!-- 40&#45;&gt;46 -->
<g id="edge80" class="edge"><title>40&#45;&gt;46</title>
<path fill="none" stroke="grey" stroke-width="2" d="M474.02,-215.697C474.02,-207.983 474.02,-198.712 474.02,-190.112"/>
<polygon fill="grey" stroke="grey" stroke-width="2" points="477.52,-190.104 474.02,-180.104 470.52,-190.104 477.52,-190.104"/>
</g>
<!-- 41&#45;&gt;38 -->
<g id="edge57" class="edge"><title>41&#45;&gt;38</title>
<path fill="none" stroke="grey" stroke-width="2" d="M676.02,-935.697C676.02,-927.983 676.02,-918.712 676.02,-910.112"/>
<polygon fill="grey" stroke="grey" stroke-width="2" points="679.52,-910.104 676.02,-900.104 672.52,-910.104 679.52,-910.104"/>
</g>
<!-- 42&#45;&gt;25 -->
<g id="edge34" class="edge"><title>42&#45;&gt;25</title>
<path fill="none" stroke="grey" stroke-width="2" d="M499.896,-935.697C505.011,-927.559 511.215,-917.689 516.864,-908.701"/>
<polygon fill="grey" stroke="grey" stroke-width="2" points="519.91,-910.433 522.268,-900.104 513.983,-906.708 519.91,-910.433"/>
</g>
<!-- 44&#45;&gt;40 -->
<g id="edge64" class="edge"><title>44&#45;&gt;40</title>
<path fill="none" stroke="grey" stroke-width="2" d="M118.001,-290.426C120.691,-289.534 123.385,-288.712 126.02,-288 229.698,-259.996 355.016,-245.464 423.412,-239.105"/>
<polygon fill="grey" stroke="grey" stroke-width="2" points="423.842,-242.58 433.485,-238.189 423.209,-235.609 423.842,-242.58"/>
</g>
<!-- 45&#45;&gt;6 -->
<g id="edge11" class="edge"><title>45&#45;&gt;6</title>
<path fill="none" stroke="grey" stroke-width="2" d="M475.02,-431.697C475.02,-423.983 475.02,-414.712 475.02,-406.112"/>
<polygon fill="grey" stroke="grey" stroke-width="2" points="478.52,-406.104 475.02,-396.104 471.52,-406.104 478.52,-406.104"/>
</g>
<!-- 45&#45;&gt;10 -->
<g id="edge13" class="edge"><title>45&#45;&gt;10</title>
<path fill="none" stroke="grey" stroke-width="2" d="M493.417,-431.721C504.049,-421.544 517.549,-408.294 529.02,-396 548.612,-375 569.739,-350.057 584.733,-331.927"/>
<polygon fill="grey" stroke="grey" stroke-width="2" points="587.51,-334.061 591.162,-324.115 582.105,-329.612 587.51,-334.061"/>
</g>
<!-- 45&#45;&gt;21 -->
<g id="edge25" class="edge"><title>45&#45;&gt;21</title>
<path fill="none" stroke="grey" stroke-width="2" d="M447.7,-432.274C430.964,-421.952 409.155,-408.363 390.02,-396 356.055,-374.055 317.72,-348.295 290.963,-330.151"/>
<polygon fill="grey" stroke="grey" stroke-width="2" points="292.595,-327.029 282.356,-324.307 288.662,-332.82 292.595,-327.029"/>
</g>
<!-- 45&#45;&gt;23 -->
<g id="edge30" class="edge"><title>45&#45;&gt;23</title>
<path fill="none" stroke="grey" stroke-width="2" d="M459.878,-431.618C452.252,-421.829 443.66,-408.989 439.02,-396 431.941,-376.187 430.117,-352.388 429.967,-334.387"/>
<polygon fill="grey" stroke="grey" stroke-width="2" points="433.468,-334.304 430.051,-324.275 426.468,-334.245 433.468,-334.304"/>
</g>
<!-- 45&#45;&gt;30 -->
<g id="edge38" class="edge"><title>45&#45;&gt;30</title>
<path fill="none" stroke="grey" stroke-width="2" d="M502.355,-432.298C519.096,-421.985 540.906,-408.397 560.02,-396 593.77,-374.11 631.811,-348.342 658.354,-330.182"/>
<polygon fill="grey" stroke="grey" stroke-width="2" points="660.622,-332.871 666.893,-324.331 656.665,-327.097 660.622,-332.871"/>
</g>
<!-- 45&#45;&gt;31 -->
<g id="edge41" class="edge"><title>45&#45;&gt;31</title>
<path fill="none" stroke="grey" stroke-width="2" d="M490.219,-431.639C497.862,-421.856 506.451,-409.014 511.02,-396 517.981,-376.166 519.531,-352.369 519.45,-334.374"/>
<polygon fill="grey" stroke="grey" stroke-width="2" points="522.947,-334.187 519.232,-324.265 515.948,-334.338 522.947,-334.187"/>
</g>
<!-- 45&#45;&gt;32 -->
<g id="edge44" class="edge"><title>45&#45;&gt;32</title>
<path fill="none" stroke="grey" stroke-width="2" d="M459.218,-431.871C436.203,-406.924 393.329,-360.45 366.873,-331.773"/>
<polygon fill="grey" stroke="grey" stroke-width="2" points="369.23,-329.166 359.877,-324.189 364.085,-333.913 369.23,-329.166"/>
</g>
<!-- 45&#45;&gt;33 -->
<g id="edge46" class="edge"><title>45&#45;&gt;33</title>
<path fill="none" stroke="grey" stroke-width="2" d="M448.009,-439.973C419.492,-430.167 373.437,-413.539 335.02,-396 290.23,-375.552 240.758,-348.192 207.778,-329.229"/>
<polygon fill="grey" stroke="grey" stroke-width="2" points="209.34,-326.09 198.931,-324.117 205.837,-332.151 209.34,-326.09"/>
</g>
<!-- 45&#45;&gt;34 -->
<g id="edge49" class="edge"><title>45&#45;&gt;34</title>
<path fill="none" stroke="grey" stroke-width="2" d="M502.047,-438.092C527.504,-427.688 566.614,-411.37 600.02,-396 647.485,-374.161 701.028,-347.229 737.085,-328.747"/>
<polygon fill="grey" stroke="grey" stroke-width="2" points="739.021,-331.687 746.316,-324.004 735.822,-325.461 739.021,-331.687"/>
</g>
<!-- 45&#45;&gt;36 -->
<g id="edge54" class="edge"><title>45&#45;&gt;36</title>
<path fill="none" stroke="grey" stroke-width="2" d="M502.289,-441.777C537.293,-432.29 599.75,-414.639 652.02,-396 711.743,-374.703 779.027,-345.902 821.933,-326.905"/>
<polygon fill="grey" stroke="grey" stroke-width="2" points="823.52,-330.03 831.236,-322.771 820.677,-323.634 823.52,-330.03"/>
</g>
<!-- 45&#45;&gt;44 -->
<g id="edge76" class="edge"><title>45&#45;&gt;44</title>
<path fill="none" stroke="grey" stroke-width="2" d="M447.893,-444.216C406.864,-436.544 326.927,-419.888 262.02,-396 211.641,-377.459 156.793,-348.832 121.269,-329.076"/>
<polygon fill="grey" stroke="grey" stroke-width="2" points="122.66,-325.843 112.225,-324.006 119.236,-331.949 122.66,-325.843"/>
</g>
<!-- 46&#45;&gt;17 -->
<g id="edge20" class="edge"><title>46&#45;&gt;17</title>
<path fill="none" stroke="grey" stroke-width="2" d="M474.02,-143.697C474.02,-135.983 474.02,-126.712 474.02,-118.112"/>
<polygon fill="grey" stroke="grey" stroke-width="2" points="477.52,-118.104 474.02,-108.104 470.52,-118.104 477.52,-118.104"/>
</g>
</g>
</svg>
