<?xml version="1.0" encoding="UTF-8" standalone="no"?>
<!DOCTYPE svg PUBLIC "-//W3C//DTD SVG 1.1//EN"
 "http://www.w3.org/Graphics/SVG/1.1/DTD/svg11.dtd">
<!-- Generated by graphviz version 2.38.0 (20140413.2041)
 -->
<!-- Title: snakemake_dag Pages: 1 -->
<svg width="358pt" height="404pt"
 viewBox="0.00 0.00 358.26 404.00" xmlns="http://www.w3.org/2000/svg" xmlns:xlink="http://www.w3.org/1999/xlink">
<g id="graph0" class="graph" transform="scale(1 1) rotate(0) translate(4 400)">
<title>snakemake_dag</title>
<polygon fill="white" stroke="none" points="-4,4 -4,-400 354.261,-400 354.261,4 -4,4"/>
<!-- 0 -->
<g id="node1" class="node"><title>0</title>
<path fill="none" stroke="#d86e56" stroke-width="2" d="M155.384,-180C155.384,-180 41.8772,-180 41.8772,-180 35.8772,-180 29.8772,-174 29.8772,-168 29.8772,-168 29.8772,-156 29.8772,-156 29.8772,-150 35.8772,-144 41.8772,-144 41.8772,-144 155.384,-144 155.384,-144 161.384,-144 167.384,-150 167.384,-156 167.384,-156 167.384,-168 167.384,-168 167.384,-174 161.384,-180 155.384,-180"/>
<text text-anchor="middle" x="98.6304" y="-159" font-family="sans" font-size="10.00">combine_454_and_illumina</text>
</g>
<!-- 13 -->
<g id="node14" class="node"><title>13</title>
<path fill="none" stroke="#ced856" stroke-width="2" d="M113.877,-108C113.877,-108 79.3838,-108 79.3838,-108 73.3838,-108 67.3838,-102 67.3838,-96 67.3838,-96 67.3838,-84 67.3838,-84 67.3838,-78 73.3838,-72 79.3838,-72 79.3838,-72 113.877,-72 113.877,-72 119.877,-72 125.877,-78 125.877,-84 125.877,-84 125.877,-96 125.877,-96 125.877,-102 119.877,-108 113.877,-108"/>
<text text-anchor="middle" x="96.6304" y="-87" font-family="sans" font-size="10.00">snp_sites</text>
</g>
<!-- 0&#45;&gt;13 -->
<g id="edge15" class="edge"><title>0&#45;&gt;13</title>
<path fill="none" stroke="grey" stroke-width="2" d="M98.136,-143.697C97.9156,-135.983 97.6507,-126.712 97.405,-118.112"/>
<polygon fill="grey" stroke="grey" stroke-width="2" points="100.903,-118 97.1191,-108.104 93.9062,-118.2 100.903,-118"/>
</g>
<!-- 15 -->
<g id="node16" class="node"><title>15</title>
<path fill="none" stroke="#566bd8" stroke-width="2" d="M201.542,-108C201.542,-108 155.719,-108 155.719,-108 149.719,-108 143.719,-102 143.719,-96 143.719,-96 143.719,-84 143.719,-84 143.719,-78 149.719,-72 155.719,-72 155.719,-72 201.542,-72 201.542,-72 207.542,-72 213.542,-78 213.542,-84 213.542,-84 213.542,-96 213.542,-96 213.542,-102 207.542,-108 201.542,-108"/>
<text text-anchor="middle" x="178.63" y="-87" font-family="sans" font-size="10.00">build_matrix</text>
</g>
<!-- 0&#45;&gt;15 -->
<g id="edge17" class="edge"><title>0&#45;&gt;15</title>
<path fill="none" stroke="grey" stroke-width="2" d="M118.406,-143.697C128.384,-134.965 140.641,-124.24 151.487,-114.75"/>
<polygon fill="grey" stroke="grey" stroke-width="2" points="153.862,-117.323 159.083,-108.104 149.252,-112.055 153.862,-117.323"/>
</g>
<!-- 1 -->
<g id="node2" class="node"><title>1</title>
<path fill="none" stroke="#d86e56" stroke-width="2" d="M313.384,-180C313.384,-180 199.877,-180 199.877,-180 193.877,-180 187.877,-174 187.877,-168 187.877,-168 187.877,-156 187.877,-156 187.877,-150 193.877,-144 199.877,-144 199.877,-144 313.384,-144 313.384,-144 319.384,-144 325.384,-150 325.384,-156 325.384,-156 325.384,-168 325.384,-168 325.384,-174 319.384,-180 313.384,-180"/>
<text text-anchor="middle" x="256.63" y="-159" font-family="sans" font-size="10.00">combine_454_and_illumina</text>
</g>
<!-- 9 -->
<g id="node10" class="node"><title>9</title>
<path fill="none" stroke="#ced856" stroke-width="2" d="M277.877,-108C277.877,-108 243.384,-108 243.384,-108 237.384,-108 231.384,-102 231.384,-96 231.384,-96 231.384,-84 231.384,-84 231.384,-78 237.384,-72 243.384,-72 243.384,-72 277.877,-72 277.877,-72 283.877,-72 289.877,-78 289.877,-84 289.877,-84 289.877,-96 289.877,-96 289.877,-102 283.877,-108 277.877,-108"/>
<text text-anchor="middle" x="260.63" y="-87" font-family="sans" font-size="10.00">snp_sites</text>
</g>
<!-- 1&#45;&gt;9 -->
<g id="edge11" class="edge"><title>1&#45;&gt;9</title>
<path fill="none" stroke="grey" stroke-width="2" d="M257.619,-143.697C258.06,-135.983 258.59,-126.712 259.081,-118.112"/>
<polygon fill="grey" stroke="grey" stroke-width="2" points="262.577,-118.288 259.653,-108.104 255.588,-117.888 262.577,-118.288"/>
</g>
<!-- 1&#45;&gt;15 -->
<g id="edge18" class="edge"><title>1&#45;&gt;15</title>
<path fill="none" stroke="grey" stroke-width="2" d="M237.349,-143.697C227.715,-135.05 215.902,-124.449 205.403,-115.027"/>
<polygon fill="grey" stroke="grey" stroke-width="2" points="207.47,-112.179 197.689,-108.104 202.794,-117.388 207.47,-112.179"/>
</g>
<!-- 2 -->
<g id="node3" class="node"><title>2</title>
<path fill="none" stroke="#56d8b9" stroke-width="2" d="M154.056,-324C154.056,-324 103.205,-324 103.205,-324 97.2046,-324 91.2046,-318 91.2046,-312 91.2046,-312 91.2046,-300 91.2046,-300 91.2046,-294 97.2046,-288 103.205,-288 103.205,-288 154.056,-288 154.056,-288 160.056,-288 166.056,-294 166.056,-300 166.056,-300 166.056,-312 166.056,-312 166.056,-318 160.056,-324 154.056,-324"/>
<text text-anchor="middle" x="128.63" y="-308" font-family="sans" font-size="10.00">align_haps</text>
<text text-anchor="middle" x="128.63" y="-298" font-family="sans" font-size="10.00">locus: ctg325</text>
</g>
<!-- 7 -->
<g id="node8" class="node"><title>7</title>
<path fill="none" stroke="#5692d8" stroke-width="2" d="M144.768,-252C144.768,-252 106.493,-252 106.493,-252 100.493,-252 94.4925,-246 94.4925,-240 94.4925,-240 94.4925,-228 94.4925,-228 94.4925,-222 100.493,-216 106.493,-216 106.493,-216 144.768,-216 144.768,-216 150.768,-216 156.768,-222 156.768,-228 156.768,-228 156.768,-240 156.768,-240 156.768,-246 150.768,-252 144.768,-252"/>
<text text-anchor="middle" x="125.63" y="-231" font-family="sans" font-size="10.00">filter_haps</text>
</g>
<!-- 2&#45;&gt;7 -->
<g id="edge9" class="edge"><title>2&#45;&gt;7</title>
<path fill="none" stroke="grey" stroke-width="2" d="M127.889,-287.697C127.558,-279.983 127.161,-270.712 126.792,-262.112"/>
<polygon fill="grey" stroke="grey" stroke-width="2" points="130.288,-261.945 126.363,-252.104 123.295,-262.245 130.288,-261.945"/>
</g>
<!-- 3 -->
<g id="node4" class="node"><title>3</title>
<path fill="none" stroke="#5692d8" stroke-width="2" d="M241.768,-252C241.768,-252 203.493,-252 203.493,-252 197.493,-252 191.493,-246 191.493,-240 191.493,-240 191.493,-228 191.493,-228 191.493,-222 197.493,-216 203.493,-216 203.493,-216 241.768,-216 241.768,-216 247.768,-216 253.768,-222 253.768,-228 253.768,-228 253.768,-240 253.768,-240 253.768,-246 247.768,-252 241.768,-252"/>
<text text-anchor="middle" x="222.63" y="-231" font-family="sans" font-size="10.00">filter_haps</text>
</g>
<!-- 3&#45;&gt;1 -->
<g id="edge3" class="edge"><title>3&#45;&gt;1</title>
<path fill="none" stroke="grey" stroke-width="2" d="M231.035,-215.697C234.905,-207.728 239.582,-198.1 243.874,-189.264"/>
<polygon fill="grey" stroke="grey" stroke-width="2" points="247.102,-190.629 248.323,-180.104 240.805,-187.57 247.102,-190.629"/>
</g>
<!-- 4 -->
<g id="node5" class="node"><title>4</title>
<path fill="none" stroke="#d89556" stroke-width="2" d="M318.63,-324C318.63,-324 288.63,-324 288.63,-324 282.63,-324 276.63,-318 276.63,-312 276.63,-312 276.63,-300 276.63,-300 276.63,-294 282.63,-288 288.63,-288 288.63,-288 318.63,-288 318.63,-288 324.63,-288 330.63,-294 330.63,-300 330.63,-300 330.63,-312 330.63,-312 330.63,-318 324.63,-324 318.63,-324"/>
<text text-anchor="middle" x="303.63" y="-303" font-family="sans" font-size="10.00">align</text>
</g>
<!-- 16 -->
<g id="node17" class="node"><title>16</title>
<path fill="none" stroke="#d8a456" stroke-width="2" d="M316.63,-252C316.63,-252 286.63,-252 286.63,-252 280.63,-252 274.63,-246 274.63,-240 274.63,-240 274.63,-228 274.63,-228 274.63,-222 280.63,-216 286.63,-216 286.63,-216 316.63,-216 316.63,-216 322.63,-216 328.63,-222 328.63,-228 328.63,-228 328.63,-240 328.63,-240 328.63,-246 322.63,-252 316.63,-252"/>
<text text-anchor="middle" x="301.63" y="-231" font-family="sans" font-size="10.00">filter</text>
</g>
<!-- 4&#45;&gt;16 -->
<g id="edge19" class="edge"><title>4&#45;&gt;16</title>
<path fill="none" stroke="grey" stroke-width="2" d="M303.136,-287.697C302.916,-279.983 302.651,-270.712 302.405,-262.112"/>
<polygon fill="grey" stroke="grey" stroke-width="2" points="305.903,-262 302.119,-252.104 298.906,-262.2 305.903,-262"/>
</g>
<!-- 5 -->
<g id="node6" class="node"><title>5</title>
<path fill="none" stroke="#d8a456" stroke-width="2" d="M63.6304,-252C63.6304,-252 33.6304,-252 33.6304,-252 27.6304,-252 21.6304,-246 21.6304,-240 21.6304,-240 21.6304,-228 21.6304,-228 21.6304,-222 27.6304,-216 33.6304,-216 33.6304,-216 63.6304,-216 63.6304,-216 69.6304,-216 75.6304,-222 75.6304,-228 75.6304,-228 75.6304,-240 75.6304,-240 75.6304,-246 69.6304,-252 63.6304,-252"/>
<text text-anchor="middle" x="48.6304" y="-231" font-family="sans" font-size="10.00">filter</text>
</g>
<!-- 5&#45;&gt;0 -->
<g id="edge1" class="edge"><title>5&#45;&gt;0</title>
<path fill="none" stroke="grey" stroke-width="2" d="M60.9899,-215.697C66.8632,-207.474 73.9995,-197.483 80.4727,-188.421"/>
<polygon fill="grey" stroke="grey" stroke-width="2" points="83.4486,-190.276 86.413,-180.104 77.7525,-186.207 83.4486,-190.276"/>
</g>
<!-- 6 -->
<g id="node7" class="node"><title>6</title>
<path fill="none" stroke="#d8bc56" stroke-width="2" d="M204.174,-396C204.174,-396 147.086,-396 147.086,-396 141.086,-396 135.086,-390 135.086,-384 135.086,-384 135.086,-372 135.086,-372 135.086,-366 141.086,-360 147.086,-360 147.086,-360 204.174,-360 204.174,-360 210.174,-360 216.174,-366 216.174,-372 216.174,-372 216.174,-384 216.174,-384 216.174,-390 210.174,-396 204.174,-396"/>
<text text-anchor="middle" x="175.63" y="-375" font-family="sans" font-size="10.00">combine_haps</text>
</g>
<!-- 6&#45;&gt;2 -->
<g id="edge5" class="edge"><title>6&#45;&gt;2</title>
<path fill="none" stroke="grey" stroke-width="2" d="M164.012,-359.697C158.492,-351.474 151.783,-341.483 145.699,-332.421"/>
<polygon fill="grey" stroke="grey" stroke-width="2" points="148.595,-330.456 140.115,-324.104 142.783,-334.358 148.595,-330.456"/>
</g>
<!-- 8 -->
<g id="node9" class="node"><title>8</title>
<path fill="none" stroke="#56d8b9" stroke-width="2" d="M247.056,-324C247.056,-324 196.205,-324 196.205,-324 190.205,-324 184.205,-318 184.205,-312 184.205,-312 184.205,-300 184.205,-300 184.205,-294 190.205,-288 196.205,-288 196.205,-288 247.056,-288 247.056,-288 253.056,-288 259.056,-294 259.056,-300 259.056,-300 259.056,-312 259.056,-312 259.056,-318 253.056,-324 247.056,-324"/>
<text text-anchor="middle" x="221.63" y="-308" font-family="sans" font-size="10.00">align_haps</text>
<text text-anchor="middle" x="221.63" y="-298" font-family="sans" font-size="10.00">locus: E10A7</text>
</g>
<!-- 6&#45;&gt;8 -->
<g id="edge10" class="edge"><title>6&#45;&gt;8</title>
<path fill="none" stroke="grey" stroke-width="2" d="M187.001,-359.697C192.349,-351.559 198.835,-341.689 204.741,-332.701"/>
<polygon fill="grey" stroke="grey" stroke-width="2" points="207.824,-334.384 210.39,-324.104 201.974,-330.539 207.824,-334.384"/>
</g>
<!-- 7&#45;&gt;0 -->
<g id="edge2" class="edge"><title>7&#45;&gt;0</title>
<path fill="none" stroke="grey" stroke-width="2" d="M118.956,-215.697C115.915,-207.813 112.248,-198.304 108.87,-189.546"/>
<polygon fill="grey" stroke="grey" stroke-width="2" points="112.092,-188.175 105.228,-180.104 105.561,-190.694 112.092,-188.175"/>
</g>
<!-- 8&#45;&gt;3 -->
<g id="edge6" class="edge"><title>8&#45;&gt;3</title>
<path fill="none" stroke="grey" stroke-width="2" d="M221.878,-287.697C221.988,-279.983 222.12,-270.712 222.243,-262.112"/>
<polygon fill="grey" stroke="grey" stroke-width="2" points="225.743,-262.153 222.386,-252.104 218.743,-262.053 225.743,-262.153"/>
</g>
<!-- 10 -->
<g id="node11" class="node"><title>10</title>
<path fill="none" stroke="#56d8d0" stroke-width="2" d="M193.63,-36C193.63,-36 163.63,-36 163.63,-36 157.63,-36 151.63,-30 151.63,-24 151.63,-24 151.63,-12 151.63,-12 151.63,-6 157.63,-0 163.63,-0 163.63,-0 193.63,-0 193.63,-0 199.63,-0 205.63,-6 205.63,-12 205.63,-12 205.63,-24 205.63,-24 205.63,-30 199.63,-36 193.63,-36"/>
<text text-anchor="middle" x="178.63" y="-15" font-family="sans" font-size="10.00">all</text>
</g>
<!-- 9&#45;&gt;10 -->
<g id="edge13" class="edge"><title>9&#45;&gt;10</title>
<path fill="none" stroke="grey" stroke-width="2" d="M240.361,-71.6966C230.133,-62.9655 217.569,-52.2405 206.452,-42.7503"/>
<polygon fill="grey" stroke="grey" stroke-width="2" points="208.545,-39.935 198.667,-36.1043 204,-45.259 208.545,-39.935"/>
</g>
<!-- 11 -->
<g id="node12" class="node"><title>11</title>
<path fill="none" stroke="#8fd856" stroke-width="2" d="M81.3915,-396C81.3915,-396 11.8693,-396 11.8693,-396 5.86926,-396 -0.130737,-390 -0.130737,-384 -0.130737,-384 -0.130737,-372 -0.130737,-372 -0.130737,-366 5.86926,-360 11.8693,-360 11.8693,-360 81.3915,-360 81.3915,-360 87.3915,-360 93.3915,-366 93.3915,-372 93.3915,-372 93.3915,-384 93.3915,-384 93.3915,-390 87.3915,-396 81.3915,-396"/>
<text text-anchor="middle" x="46.6304" y="-380" font-family="sans" font-size="10.00">insert_references</text>
<text text-anchor="middle" x="46.6304" y="-370" font-family="sans" font-size="10.00">locus: ctg325</text>
</g>
<!-- 14 -->
<g id="node15" class="node"><title>14</title>
<path fill="none" stroke="#d89556" stroke-width="2" d="M61.6304,-324C61.6304,-324 31.6304,-324 31.6304,-324 25.6304,-324 19.6304,-318 19.6304,-312 19.6304,-312 19.6304,-300 19.6304,-300 19.6304,-294 25.6304,-288 31.6304,-288 31.6304,-288 61.6304,-288 61.6304,-288 67.6304,-288 73.6304,-294 73.6304,-300 73.6304,-300 73.6304,-312 73.6304,-312 73.6304,-318 67.6304,-324 61.6304,-324"/>
<text text-anchor="middle" x="46.6304" y="-303" font-family="sans" font-size="10.00">align</text>
</g>
<!-- 11&#45;&gt;14 -->
<g id="edge16" class="edge"><title>11&#45;&gt;14</title>
<path fill="none" stroke="grey" stroke-width="2" d="M46.6304,-359.697C46.6304,-351.983 46.6304,-342.712 46.6304,-334.112"/>
<polygon fill="grey" stroke="grey" stroke-width="2" points="50.1305,-334.104 46.6304,-324.104 43.1305,-334.104 50.1305,-334.104"/>
</g>
<!-- 12 -->
<g id="node13" class="node"><title>12</title>
<path fill="none" stroke="#8fd856" stroke-width="2" d="M338.391,-396C338.391,-396 268.869,-396 268.869,-396 262.869,-396 256.869,-390 256.869,-384 256.869,-384 256.869,-372 256.869,-372 256.869,-366 262.869,-360 268.869,-360 268.869,-360 338.391,-360 338.391,-360 344.391,-360 350.391,-366 350.391,-372 350.391,-372 350.391,-384 350.391,-384 350.391,-390 344.391,-396 338.391,-396"/>
<text text-anchor="middle" x="303.63" y="-380" font-family="sans" font-size="10.00">insert_references</text>
<text text-anchor="middle" x="303.63" y="-370" font-family="sans" font-size="10.00">locus: E10A7</text>
</g>
<!-- 12&#45;&gt;4 -->
<g id="edge7" class="edge"><title>12&#45;&gt;4</title>
<path fill="none" stroke="grey" stroke-width="2" d="M303.63,-359.697C303.63,-351.983 303.63,-342.712 303.63,-334.112"/>
<polygon fill="grey" stroke="grey" stroke-width="2" points="307.13,-334.104 303.63,-324.104 300.13,-334.104 307.13,-334.104"/>
</g>
<!-- 13&#45;&gt;10 -->
<g id="edge12" class="edge"><title>13&#45;&gt;10</title>
<path fill="none" stroke="grey" stroke-width="2" d="M116.9,-71.6966C127.128,-62.9655 139.692,-52.2405 150.809,-42.7503"/>
<polygon fill="grey" stroke="grey" stroke-width="2" points="153.261,-45.259 158.594,-36.1043 148.716,-39.935 153.261,-45.259"/>
</g>
<!-- 14&#45;&gt;5 -->
<g id="edge8" class="edge"><title>14&#45;&gt;5</title>
<path fill="none" stroke="grey" stroke-width="2" d="M47.1248,-287.697C47.3452,-279.983 47.61,-270.712 47.8557,-262.112"/>
<polygon fill="grey" stroke="grey" stroke-width="2" points="51.3546,-262.2 48.1417,-252.104 44.3574,-262 51.3546,-262.2"/>
</g>
<!-- 15&#45;&gt;10 -->
<g id="edge14" class="edge"><title>15&#45;&gt;10</title>
<path fill="none" stroke="grey" stroke-width="2" d="M178.63,-71.6966C178.63,-63.9827 178.63,-54.7125 178.63,-46.1124"/>
<polygon fill="grey" stroke="grey" stroke-width="2" points="182.13,-46.1043 178.63,-36.1043 175.13,-46.1044 182.13,-46.1043"/>
</g>
<!-- 16&#45;&gt;1 -->
<g id="edge4" class="edge"><title>16&#45;&gt;1</title>
<path fill="none" stroke="grey" stroke-width="2" d="M290.507,-215.697C285.275,-207.559 278.93,-197.689 273.153,-188.701"/>
<polygon fill="grey" stroke="grey" stroke-width="2" points="275.978,-186.623 267.626,-180.104 270.09,-190.409 275.978,-186.623"/>
</g>
</g>
</svg>
